<mxfile host="app.diagrams.net" modified="2020-11-26T00:12:46.316Z" agent="5.0 (Windows NT 10.0; Win64; x64) AppleWebKit/537.36 (KHTML, like Gecko) Chrome/86.0.4240.198 Safari/537.36" etag="w4wvAxIOMpAxKQ5cjHjA" version="13.10.3" type="github">
  <diagram name="Page-1" id="822b0af5-4adb-64df-f703-e8dfc1f81529">
    <mxGraphModel dx="2062" dy="1123" grid="1" gridSize="10" guides="1" tooltips="1" connect="1" arrows="1" fold="1" page="1" pageScale="1" pageWidth="1100" pageHeight="850" background="#ffffff" math="0" shadow="0">
      <root>
        <mxCell id="0" />
        <mxCell id="1" parent="0" />
        <mxCell id="tXvzJ4y7VldQNO_9QuaZ-1" value="" style="verticalLabelPosition=bottom;aspect=fixed;html=1;verticalAlign=top;strokeColor=none;align=center;outlineConnect=0;shape=mxgraph.citrix.laptop_2;" vertex="1" parent="1">
          <mxGeometry x="790" y="320" width="116" height="86.5" as="geometry" />
        </mxCell>
        <mxCell id="tXvzJ4y7VldQNO_9QuaZ-2" value="" style="verticalLabelPosition=bottom;aspect=fixed;html=1;verticalAlign=top;strokeColor=none;align=center;outlineConnect=0;shape=mxgraph.citrix.desktop;" vertex="1" parent="1">
          <mxGeometry x="520" y="308.5" width="89" height="98" as="geometry" />
        </mxCell>
        <mxCell id="tXvzJ4y7VldQNO_9QuaZ-3" value="" style="shape=singleArrow;direction=west;whiteSpace=wrap;html=1;" vertex="1" parent="1">
          <mxGeometry x="640" y="348.25" width="120" height="30" as="geometry" />
        </mxCell>
        <mxCell id="tXvzJ4y7VldQNO_9QuaZ-4" value="" style="verticalLabelPosition=bottom;aspect=fixed;html=1;verticalAlign=top;strokeColor=none;align=center;outlineConnect=0;shape=mxgraph.citrix.role_repeater;fillColor=#CCCCCC;gradientColor=#000000;gradientDirection=south;" vertex="1" parent="1">
          <mxGeometry x="820" y="270.5" width="38" height="38" as="geometry" />
        </mxCell>
        <mxCell id="tXvzJ4y7VldQNO_9QuaZ-5" value="" style="verticalLabelPosition=bottom;aspect=fixed;html=1;verticalAlign=top;strokeColor=none;align=center;outlineConnect=0;shape=mxgraph.citrix.cell_phone;rotation=0;" vertex="1" parent="1">
          <mxGeometry x="906" y="259.5" width="25" height="60" as="geometry" />
        </mxCell>
        <mxCell id="tXvzJ4y7VldQNO_9QuaZ-6" value="" style="verticalLabelPosition=bottom;aspect=fixed;html=1;verticalAlign=top;strokeColor=none;align=center;outlineConnect=0;shape=mxgraph.citrix.ip_phone;" vertex="1" parent="1">
          <mxGeometry x="420" y="369.5" width="76.5" height="37" as="geometry" />
        </mxCell>
      </root>
    </mxGraphModel>
  </diagram>
</mxfile>
